<svg xmlns="http://www.w3.org/2000/svg" fill="#575757" viewBox="0 0 1100 1000" height="50" class="_2X7F_"><path d="M2 776c3-5 9-6 16-1a1065 1065 0 00959 60c10-4 18-2 24 6 5 8 3 15-6 22a708 708 0 01-238 109A809 809 0 016 792c-4-3-6-7-6-10l2-6zm301-285c0-46 11-85 34-118s54-57 93-74c36-15 80-26 133-33l88-8v-17c0-43-5-71-14-86-14-20-36-30-66-30h-8c-22 2-41 9-57 21s-26 29-31 50c-3 13-9 21-20 23l-115-14c-11-3-17-9-17-18l1-7c11-59 39-103 84-132 44-29 96-45 155-48h25c76 0 135 20 178 59a191 191 0 0119 22l13 20 9 26 6 24 3 28 1 25v242a143 143 0 0022 79l23 30c4 6 6 11 6 16s-3 10-8 14l-90 78c-8 6-18 7-29 2a338 338 0 01-68-78c-37 41-74 66-110 76-23 7-51 10-84 10-51 0-93-16-126-47s-50-77-50-135zm172-20c0 26 7 47 20 63a64 64 0 0061 22l7-1c28-7 50-25 65-54a190 190 0 0023-78v-71c-39 0-68 3-88 8-59 17-88 54-88 111zm420 322l6-8c17-11 33-19 48-23a326 326 0 0193-10c30 3 48 8 54 15 3 4 4 10 4 18v7c0 23-6 51-19 83-13 31-30 57-53 76-3 3-6 4-9 4l-4-1c-4-2-5-6-3-11 25-58 37-98 37-121 0-7-1-13-4-16-7-8-25-12-56-12a470 470 0 00-86 8l-8-2c-1-1-2-3-1-4l1-3z"></path></svg>