<svg xmlns="http://www.w3.org/2000/svg" fill="#575757" viewBox="0 0 46 47" height="50" class="_2X7F_"><path d="M.9 11l20.9-9.8a4 4 0 013.5.1c6.6 3 13.2 6.1 19.7 9.3.4.2 1 .4 1 1s-.6.7-1.1 1L26 21.4c-1.8.8-3.3.8-5 0L.9 12v-1zM1 36l3.7-2c1.5-.8 3-.6 4.5.1l12 5.7a5 5 0 004.5 0c4-1.9 8.1-3.7 12.2-5.8 1.5-.7 3-.7 4.4 0l2.7 1.3c.4.3 1 .4 1 1 0 .5-.6.7-1 .9l-9 4.3-10.3 4.8c-1.4.7-2.7.7-4 .1l-19.4-9-1-.8c-.3-.1-.3-.4-.3-.7z"/><path d="M1 23.6l2.8-1.4c2.2-1.3 4.2-1 6.4 0 3.8 2 7.6 3.6 11.3 5.4 1.5.7 2.7.7 4.1 0l12-5.7c1.7-.8 3.3-.8 5 0l2.8 1.4c.8.5.7 1 0 1.5l-.7.3-19.3 9a4 4 0 01-3.8 0L2.4 25 1 24.3v-.7z"/></svg>