<svg xmlns="http://www.w3.org/2000/svg" fill="#575757" fill-rule="evenodd" clip-rule="evenodd" viewBox="0 100 560 200" width="120" height="120"><path fill="#333" d="M281 126c4 0 7 1 9 3 3 3 4 8 2 12-6 12-20 21-29 23-6 2-13 2-19 0-2 1-4 6-7 4-5-3-1-9-4-13l-2-2c-4-8 1-15 6-21 8-9 31-20 44-6zm-27 6c-4 1-10 3-12 6-3 3-5 6-3 10 6-5 8-11 15-15v-1zm28 1c-12-1-21 8-29 17-1 1-4 3-1 4 11 1 22-2 30-10 2-2 4-5 3-8l-3-3zm101 51c6 13 10 34 0 47-2 3-7 6-10 3-12-9-16-21-23-33-1-1-1 1-2 1-2 12 2 27-6 36-3 1-5-1-6-4-4-12 0-24 1-36 2-6 3-13 8-18 9 3 13 13 18 20l10 16c4-2 2-6 2-9-1-11-4-21-7-32 0-3-2-7 1-9 8 3 11 11 14 18zm-51-4c0 2-2 6-4 6-16 3-34 1-49 6-1 2 1 2 2 3 13 2 27 2 40 6 7 1 9 9 10 16 0 5-2 11-7 15-13 8-32 8-45 0-4-2-9-7-9-12 0-4 1-8 4-10 13-4 28-2 38 5 1 3-3 3-4 4-12 7-21-8-32-2-1 1-2 3-1 4 14 6 29 2 42-2l3-3c0-6-6-7-10-8-12-3-24-3-37-4l-6-5c-1-4-1-9 2-13 16-14 40-12 60-9l3 3zm-74 6l2 49c0 2-3 3-5 3-2 1-6 0-7-1-4-6-3-15-3-22 1-12 0-26 4-37 0-1 2-3 4-2 4 2 5 6 5 10zm188-2c1 1 2 4 0 4-7 4-18 2-26 3-3 2-5 6-4 9l3 1c5 0 13-3 17 3 1 1 0 7-3 7-6 1-17-1-20 1-4 2-4 8-6 12 3 2 6 0 10-1 6-1 13-3 19-1 1 2 3 4 2 7-11 9-25 17-39 11-6-2-8-11-6-18 1-5 6-10 3-15-1-3 1-5 3-5 5 0 4-7 7-10-3-4-11-4-11-11 4-2 9-1 14-2 10-2 21-3 31-2 2 0 5 4 6 7zm-242-39c16 13 36 35 33 60-3 20-24 35-41 40-18 5-39 4-57 0-1 3-3 7-6 9-3 0-6 0-8-2-5-5-1-14-8-17-15-6-31-19-39-34-1-3 0-6 2-8 12-10 27-14 41-16l2-2c0-10 1-20 4-29 1-2 3-2 4-1 9 7 5 20 9 30 18 1 35 2 49 12 5 4 6 11 5 15-2 5-7 8-11 8-3 0-9 0-9-2 1-2 11-6 8-9-5-5-27-8-41-9-1-1-3 0-3 2 0 13-1 27 1 39l2 2c24 4 50 2 69-12 9-7 12-17 10-28-8-31-40-49-66-61-26-11-54-17-84-16-5 1-13 2-13 4s9 1 8 4c-1 4-10 2-13 1-2-1-2-5-2-7 7-12 26-13 34-13 46-1 91 16 120 40zm-83 46c-12 0-24 1-35 5-2 1-5 3-3 6a64 64 0 0038 23l1-33-1-1zm351-16c-1 15-15 24-15 39l2 1c11-12 22-29 38-34 4-1 8 3 10 6 5 11 4 27-4 37s-22 20-38 18c-7 17-11 34-14 51-1 4-4 1-6 0-14-11-3-39-2-43l7-20c-6-11-2-25 3-36 4-7 10-14 17-19h2zm27 19c-2-1-3 2-5 3-7 8-15 17-19 28 5 0 10-3 14-5 8-5 13-13 12-22l-2-4z"/></svg>