<svg fill="none" height="32" viewBox="0 0 32 32" width="32" xmlns="http://www.w3.org/2000/svg" xmlns:xlink="http://www.w3.org/1999/xlink"><clipPath id="a"><path d="m0 0h32v32h-32z"></path></clipPath><g clip-path="url(#a)"><path clip-rule="evenodd" d="m4.00024 0h23.99996c2.2 0 4 1.8 4 4v24c0 2.2-1.8 4-4 4h-23.99996c-2.2 0-3.99999586-1.8-3.99999586-4v-5.3741l.05650906.0329c1.3648868.7949 4.5918168 2.6741 5.3822068 3.1203.47832.27.93616.2634 1.39744-.0024.27591-.1591 3.302-1.9006 6.3599-3.6603l.0148-.0085.0607-.035c3.1815-1.8309 6.3732-3.6677 6.5144-3.7492.2772-.16.2911-.6511-.0192-.8282l-.2176-.124-.0002-.0001-.0005-.0003-.0009-.0005c-.3163-.1801-.7254-.4131-.9-.5153-.2233-.1303-.6249-.2027-.9974.0119-.1546.0892-10.50128 6.0384-10.84712 6.235-.41392.2353-.92624.2384-1.33872-.0004-.32576-.1885-5.46431586-3.1744-5.46431586-3.1744v-2.6934l.05673906.0331c1.3650168.7949 4.5916268 2.6739 5.3819768 3.1201.47832.27.93616.2634 1.39744-.0024.2761-.1592 3.3063-1.903 6.3664-3.664l.0241-.0139.0189-.0109.0109-.0063c3.1865-1.8338 6.3881-3.6763 6.5295-3.7579.2772-.16.2911-.6511-.0192-.8281l-.2175-.124c-.3164-.1801-.7269-.4139-.9017-.5163-.2233-.1302-.6249-.2026-.9974.0119-.1546.0892-10.50128 6.0384-10.84712 6.235-.41392.2353-.92624.2384-1.33872-.0004-.32576-.1885-5.46431586-3.1744-5.46431586-3.1744v-2.693l.05587396.0325c1.3645219.7946 4.5923319 2.6743 5.3828419 3.1206.47832.2701.93616.2634 1.39744-.0024.27632-.1593 3.3112-1.9058 6.3738-3.6683l.0082-.0047c3.1991-1.84106 6.4258-3.69802 6.5678-3.77997.2772-.16008.2911-.65112-.0192-.82816l-.2176-.12399-.0007-.00041c-.3163-.18014-.7262-.41357-.9009-.51584-.2233-.13024-.6249-.20264-.9974.01192-.1546.0892-10.50128 6.03845-10.84712 6.23495-.41392.2354-.92624.2384-1.33872-.0004-.32576-.1885-5.46431586-3.17439-5.46431586-3.17439v-5.14391c0-2.2 1.79999586-4 3.99999586-4z" fill="#202020" fill-rule="evenodd"></path></g></svg>