<svg xmlns="http://www.w3.org/2000/svg" fill="#575757" viewBox="0 220 652 252" width="120" height="120"><path d="M71 320l10 1c4 1 8 6 8 9l-1 5-11 21a360 360 0 01-14-27 17 17 0 01-2-6c0-2 4-3 10-3zm-46 0c4 1 6 2 8 7 11 18 21 38 30 58l5 1 5-1c4-9 16-32 22-41a906 906 0 0121 41l4 1 5-1 27-56c4-6 5-8 12-9l3-1c1-1 1-5-1-6a184 184 0 01-32 0c-2 1-2 5-1 6l3 1 5 2c0 2 0 4-2 7l-11 27a489 489 0 01-14-28l-1-6 7-2 3-1c2 0 2-6 0-6l-36 1H46l-24-1c-2 1-2 5-1 6l4 1z" class="wework_svg__st0"/><path d="M195 319c7 0 11 4 11 10l-2 4a19 19 0 01-8 1h-7c-7 0-10 0-10-2 0-6 7-13 16-13zm0 67a40 40 0 0035-20c0-3-3-4-5-4-5 8-13 9-19 9-19 0-29-13-29-26 1-3 1-3 6-3h39c6 0 7-2 7-6 0-13-11-25-33-25-25 0-43 17-43 39 0 19 14 36 42 36zm86-66l10 1c4 1 7 6 7 9v5l-11 21a360 360 0 01-15-27 17 17 0 01-1-6c-1-2 3-3 10-3zm-46 0c3 1 5 2 8 7l30 58 5 1 4-1 22-41a899 899 0 0121 41l5 1 5-1 27-56c3-6 5-8 11-9l3-1c2-1 1-5 0-6a183 183 0 01-33 0c-2 1-2 5-1 6l4 1 5 2-2 7-11 27a489 489 0 01-14-28l-2-6 8-2 3-1c1 0 2-6-1-6l-36 1h-41l-23-1c-2 1-2 5-1 6l4 1z" class="wework_svg__st0"/><path d="M409 319c11 0 17 15 17 32 1 16-3 27-15 27s-18-14-18-32c0-19 7-27 16-27zm0 67c25 0 47-12 47-38 0-24-22-37-46-37s-47 14-47 39c0 24 22 36 46 36z" class="wework_svg__st0"/><path d="M490 326c1 0 3 0 8 3 2 2 5 4 8 4 6 0 13-4 13-12 0-6-6-10-11-10-9 0-15 6-20 9-2-1-2-1-2-3v-7c0-1-1-2-3-2-6 4-20 8-30 11v5l3 2c4 2 4 4 4 11v27c0 12-1 13-8 14h-4c-1 1-1 5 1 6a856 856 0 0151 0c2-1 2-5 0-6h-6c-7-1-8-2-8-15v-27c0-6 1-10 4-10" class="wework_svg__st0"/><path d="M570 378h-3c-1 2-1 5 1 6a523 523 0 0151 0c2 0 2-5 0-6h-3l-12-4a283 283 0 01-28-37l2-2 13-11a36 36 0 0114-6l6-1c2-1 2-5 0-6a342 342 0 01-39 3h-5c-2 0-2 4 0 6h5l4 2-5 7-9 9c-4 4-8 5-11 5s-3-1-3-3v-81l-3-1a258 258 0 01-31 10c-2 1-2 4 0 5l3 2c4 2 4 4 4 11v77c0 13 0 14-8 15h-4v6a593 593 0 0150 0v-6h-3c-7-1-8-2-8-15v-10c0-3 1-4 2-4 2 0 4 1 5 3l15 19 3 5-3 2" class="wework_svg__st0"/></svg>